<?xml version="1.0" standalone="no"?>
<!DOCTYPE svg PUBLIC "-//W3C//DTD SVG 20010904//EN"
 "http://www.w3.org/TR/2001/REC-SVG-20010904/DTD/svg10.dtd">
<svg version="1.0" xmlns="http://www.w3.org/2000/svg"
 width="459.000000pt" height="108.000000pt" viewBox="0 0 459.000000 108.000000"
 preserveAspectRatio="xMidYMid meet">

<g transform="translate(0.000000,108.000000) scale(0.100000,-0.100000)"
fill="#000000" stroke="none">
<path d="M90 810 l0 -80 90 0 90 0 0 -300 0 -300 100 0 100 0 2 298 3 297 93
3 92 3 0 79 0 80 -285 0 -285 0 0 -80z"/>
<path d="M772 613 c3 -268 4 -280 27 -331 49 -108 143 -157 301 -156 147 1
236 48 287 151 l28 58 3 278 4 277 -101 0 -101 0 0 -247 c0 -220 -3 -253 -19
-289 -22 -49 -63 -69 -122 -61 -49 7 -86 38 -99 86 -5 20 -10 143 -10 274 l0
237 -101 0 -100 0 3 -277z"/>
</g>
</svg>
